<?xml version="1.0" encoding="UTF-8"?>
<svg xmlns="http://www.w3.org/2000/svg" xmlns:xlink="http://www.w3.org/1999/xlink" width="188px" height="40px" viewBox="0 0 186 40" version="1.1">
<g id="surface1">
<path style=" stroke:none;fill-rule:nonzero;fill:rgb(99.607843%,100%,100%);fill-opacity:1;" d="M 139.933594 40.175781 C 93.289062 40.175781 46.730469 40.175781 0.171875 40.175781 C 0.171875 26.839844 0.171875 13.507812 0.171875 0.175781 C 62.171875 0.175781 124.171875 0.175781 186.171875 0.175781 C 186.171875 13.507812 186.171875 26.839844 186.171875 40.175781 C 170.789062 40.175781 155.402344 40.175781 139.933594 40.175781 M 27.167969 0.714844 C 26.699219 1.039062 26.171875 1.304688 25.773438 1.699219 C 22.109375 5.351562 18.460938 9.019531 14.828125 12.699219 C 14.425781 13.105469 14.105469 13.246094 13.492188 13.085938 C 7.980469 11.683594 2.082031 15.4375 0.929688 21.035156 C -0.644531 28.664062 5.945312 35.199219 13.535156 33.507812 C 14.054688 33.394531 14.328125 33.523438 14.652344 33.855469 C 16.128906 35.359375 17.621094 36.855469 19.109375 38.351562 C 20.695312 39.941406 22.257812 39.9375 23.847656 38.339844 C 26.195312 35.984375 28.535156 33.625 30.882812 31.269531 C 34.960938 27.167969 39.042969 23.074219 43.113281 18.96875 C 44.441406 17.632812 44.578125 15.953125 43.363281 14.71875 C 38.964844 10.242188 34.53125 5.800781 30.089844 1.371094 C 29.332031 0.617188 28.378906 0.316406 27.167969 0.714844 M 59.828125 26.042969 C 58.726562 25.691406 57.753906 26.027344 56.738281 26.753906 C 56.738281 25.347656 56.738281 24.089844 56.738281 22.804688 C 56.261719 22.804688 55.871094 22.804688 55.457031 22.804688 C 55.457031 26.523438 55.457031 30.207031 55.457031 33.894531 C 55.855469 33.894531 56.199219 33.894531 56.558594 33.894531 C 56.621094 33.660156 56.679688 33.4375 56.746094 33.1875 C 58.324219 34.339844 59.890625 34.34375 60.949219 33.242188 C 62.386719 31.753906 62.40625 28.207031 60.960938 26.738281 C 60.6875 26.457031 60.296875 26.296875 59.828125 26.042969 M 123.113281 33.445312 C 123.214844 34.40625 123.910156 33.675781 124.289062 33.945312 C 124.34375 33.65625 124.378906 33.445312 124.421875 33.199219 C 124.558594 33.265625 124.636719 33.289062 124.699219 33.335938 C 126.582031 34.734375 128.742188 34.089844 129.453125 31.882812 C 129.894531 30.523438 129.871094 29.136719 129.355469 27.800781 C 128.714844 26.140625 126.953125 25.441406 125.382812 26.1875 C 125.109375 26.316406 124.855469 26.496094 124.449219 26.738281 C 124.449219 25.347656 124.449219 24.078125 124.449219 22.824219 C 123.9375 22.824219 123.546875 22.824219 123.171875 22.824219 C 123.144531 22.929688 123.121094 22.984375 123.121094 23.039062 C 123.117188 26.449219 123.117188 29.863281 123.113281 33.445312 M 67.832031 26.226562 C 65.894531 25.476562 64.265625 26.199219 63.652344 28.136719 C 63.191406 29.589844 63.210938 31.058594 63.921875 32.441406 C 64.773438 34.097656 66.640625 34.558594 68.1875 33.542969 C 68.324219 33.453125 68.453125 33.363281 68.585938 33.273438 C 68.570312 33.371094 68.554688 33.472656 68.539062 33.574219 C 68.972656 33.722656 69.40625 33.875 69.914062 34.050781 C 69.914062 30.160156 69.914062 26.472656 69.914062 22.828125 C 69.460938 22.828125 69.070312 22.828125 68.613281 22.828125 C 68.613281 24.113281 68.613281 25.34375 68.613281 26.699219 C 68.328125 26.515625 68.144531 26.398438 67.832031 26.226562 M 137.691406 26.175781 C 137.691406 25.054688 137.691406 23.9375 137.691406 22.808594 C 137.207031 22.808594 136.8125 22.808594 136.324219 22.808594 C 136.324219 24.09375 136.324219 25.339844 136.324219 26.640625 C 134.394531 25.582031 133 25.710938 131.976562 26.980469 C 130.765625 28.488281 130.777344 31.5 132 33 C 133.046875 34.285156 134.433594 34.386719 136.335938 33.300781 C 136.488281 34.230469 137.117188 33.886719 137.691406 33.863281 C 137.691406 31.316406 137.691406 28.832031 137.691406 26.175781 M 45.777344 33.914062 C 46.03125 33.757812 46.402344 33.660156 46.515625 33.433594 C 46.796875 32.871094 46.921875 32.226562 47.1875 31.65625 C 47.289062 31.433594 47.605469 31.179688 47.832031 31.171875 C 49.125 31.125 50.421875 31.148438 51.699219 31.148438 C 51.761719 31.269531 51.808594 31.34375 51.839844 31.421875 C 52.007812 31.882812 52.175781 32.34375 52.34375 32.804688 C 52.789062 34.03125 52.789062 34.03125 54.15625 33.828125 C 52.867188 30.445312 51.59375 27.074219 50.269531 23.71875 C 50.191406 23.511719 49.738281 23.355469 49.460938 23.359375 C 49.230469 23.367188 48.882812 23.59375 48.796875 23.808594 C 48.246094 25.140625 47.753906 26.5 47.238281 27.847656 C 46.480469 29.839844 45.71875 31.832031 44.9375 33.875 C 45.234375 33.890625 45.429688 33.902344 45.777344 33.914062 M 116.003906 25.085938 C 114.894531 27.992188 113.785156 30.902344 112.648438 33.878906 C 113.175781 33.878906 113.597656 33.878906 114.082031 33.878906 C 114.347656 33.140625 114.59375 32.375 114.90625 31.636719 C 114.992188 31.429688 115.277344 31.175781 115.476562 31.167969 C 116.796875 31.128906 118.121094 31.148438 119.417969 31.148438 C 119.484375 31.285156 119.53125 31.359375 119.5625 31.441406 C 119.730469 31.902344 119.898438 32.363281 120.066406 32.824219 C 120.515625 34.058594 120.515625 34.058594 121.859375 33.808594 C 120.585938 30.453125 119.320312 27.105469 118.019531 23.769531 C 117.9375 23.5625 117.558594 23.355469 117.324219 23.359375 C 117.050781 23.367188 116.6875 23.539062 116.535156 23.757812 C 116.296875 24.105469 116.199219 24.550781 116.003906 25.085938 M 84.636719 29.566406 C 83.3125 30.382812 82.878906 31.714844 83.558594 32.867188 C 84.378906 34.242188 86.25 34.40625 88.085938 33.234375 C 88.285156 34.335938 89.074219 33.820312 89.617188 33.878906 C 89.558594 33.0625 89.476562 32.292969 89.457031 31.519531 C 89.425781 30.480469 89.480469 29.433594 89.429688 28.394531 C 89.355469 26.949219 88.492188 26.101562 87.015625 25.933594 C 85.375 25.75 83.867188 26.546875 83.488281 27.808594 C 83.457031 27.910156 83.472656 28.027344 83.46875 28.136719 C 84.453125 28.304688 84.453125 28.304688 85.019531 27.601562 C 85.488281 27.015625 86.59375 26.816406 87.332031 27.179688 C 87.980469 27.5 88.214844 28.191406 88.011719 29.003906 C 86.898438 29.179688 85.828125 29.351562 84.636719 29.566406 M 143.417969 34.054688 C 144.457031 33.917969 145.339844 33.523438 145.941406 32.53125 C 145.675781 32.320312 145.433594 32.132812 145.164062 31.925781 C 144.292969 32.890625 143.277344 33.253906 142.105469 32.710938 C 141.175781 32.285156 140.855469 31.449219 140.792969 30.367188 C 142.585938 30.367188 144.300781 30.367188 146.136719 30.367188 C 146.039062 29.578125 146.03125 28.878906 145.855469 28.222656 C 145.28125 26.089844 142.945312 25.234375 141.109375 26.441406 C 139.667969 27.390625 139.019531 29.628906 139.617188 31.609375 C 140.09375 33.1875 141.375 34.050781 143.417969 34.054688 M 73.378906 33.554688 C 75.296875 34.511719 77.183594 34.121094 78.195312 32.511719 C 77.964844 32.324219 77.726562 32.136719 77.457031 31.921875 C 76.585938 32.875 75.574219 33.253906 74.402344 32.71875 C 73.472656 32.292969 73.132812 31.460938 73.085938 30.382812 C 74.851562 30.382812 76.566406 30.382812 78.394531 30.382812 C 78.332031 29.664062 78.339844 29.027344 78.207031 28.417969 C 77.9375 27.167969 77.226562 26.265625 75.917969 25.992188 C 74.585938 25.710938 73.480469 26.132812 72.601562 27.171875 C 71.386719 28.613281 71.199219 32.15625 73.378906 33.554688 M 156.640625 26.773438 C 155.355469 28.160156 154.996094 30.289062 155.785156 32.011719 C 156.414062 33.382812 157.511719 34.085938 159.003906 34.058594 C 160.492188 34.03125 161.644531 33.34375 162.136719 31.910156 C 162.398438 31.140625 162.476562 30.273438 162.457031 29.453125 C 162.425781 28.03125 161.804688 26.871094 160.472656 26.25 C 159.164062 25.644531 157.894531 25.804688 156.640625 26.773438 M 148.917969 26.570312 C 148.777344 25.609375 148.101562 26.246094 147.632812 26.066406 C 147.632812 28.707031 147.632812 31.269531 147.632812 33.863281 C 148.082031 33.863281 148.492188 33.863281 148.949219 33.863281 C 148.949219 32.167969 148.925781 30.523438 148.964844 28.878906 C 148.972656 28.507812 149.117188 28.082031 149.339844 27.789062 C 149.890625 27.058594 150.699219 26.925781 151.523438 27.175781 C 152.328125 27.417969 152.414062 28.140625 152.410156 28.871094 C 152.40625 30.539062 152.410156 32.207031 152.410156 33.882812 C 152.90625 33.882812 153.300781 33.882812 153.773438 33.882812 C 153.773438 32.121094 153.796875 30.390625 153.761719 28.664062 C 153.742188 27.65625 153.554688 26.660156 152.507812 26.1875 C 151.398438 25.683594 150.324219 25.828125 149.347656 26.59375 C 149.242188 26.675781 149.066406 26.664062 148.917969 26.570312 M 168.996094 28.609375 C 168.996094 29.417969 168.996094 30.230469 168.996094 31.042969 C 168.992188 32.253906 168.375 32.859375 167.121094 32.890625 C 166 32.921875 165.558594 32.441406 165.523438 31.136719 C 165.511719 30.558594 165.519531 29.976562 165.519531 29.398438 C 165.519531 28.308594 165.519531 27.214844 165.519531 26.109375 C 165.023438 26.109375 164.632812 26.109375 164.195312 26.109375 C 164.195312 28.019531 164.121094 29.898438 164.21875 31.769531 C 164.296875 33.320312 165.355469 34.1875 166.902344 34.042969 C 167.617188 33.976562 168.304688 33.648438 168.992188 33.441406 C 169.101562 34.355469 169.789062 33.800781 170.261719 33.867188 C 170.261719 31.230469 170.261719 28.671875 170.261719 26.128906 C 169.808594 26.128906 169.421875 26.128906 168.996094 26.128906 C 168.996094 26.9375 168.996094 27.6875 168.996094 28.609375 M 93.355469 30.003906 C 92.765625 30.789062 92.140625 31.554688 91.601562 32.375 C 91.332031 32.785156 91.214844 33.300781 90.996094 33.855469 C 93.28125 33.855469 95.308594 33.855469 97.371094 33.855469 C 97.351562 33.488281 97.335938 33.179688 97.316406 32.792969 C 95.832031 32.792969 94.410156 32.792969 92.832031 32.792969 C 94.191406 30.972656 95.472656 29.304688 96.699219 27.597656 C 96.984375 27.203125 97.097656 26.679688 97.328125 26.109375 C 95.15625 26.109375 93.234375 26.109375 91.304688 26.109375 C 91.304688 26.476562 91.304688 26.800781 91.304688 27.179688 C 92.679688 27.179688 93.992188 27.179688 95.464844 27.179688 C 94.730469 28.164062 94.078125 29.035156 93.355469 30.003906 M 103.828125 26.070312 C 103.289062 26.070312 102.75 26.070312 102.191406 26.070312 C 102.191406 26.464844 102.191406 26.769531 102.191406 27.160156 C 103.554688 27.160156 104.886719 27.160156 106.347656 27.160156 C 106.109375 27.507812 105.957031 27.742188 105.789062 27.964844 C 104.683594 29.449219 103.554688 30.910156 102.484375 32.414062 C 102.210938 32.796875 102.117188 33.304688 101.878906 33.914062 C 103.128906 33.914062 104.132812 33.914062 105.132812 33.914062 C 106.164062 33.914062 107.191406 33.914062 108.234375 33.914062 C 108.234375 33.519531 108.234375 33.214844 108.234375 32.828125 C 106.777344 32.828125 105.351562 32.828125 103.773438 32.828125 C 104.011719 32.472656 104.152344 32.238281 104.3125 32.019531 C 105.421875 30.539062 106.554688 29.082031 107.625 27.578125 C 107.90625 27.183594 108.007812 26.660156 108.238281 26.070312 C 106.644531 26.070312 105.324219 26.070312 103.828125 26.070312 M 81.371094 25.652344 C 81.371094 24.707031 81.371094 23.757812 81.371094 22.808594 C 80.867188 22.808594 80.472656 22.808594 80.074219 22.808594 C 80.074219 26.527344 80.074219 30.214844 80.074219 33.863281 C 80.53125 33.863281 80.921875 33.863281 81.371094 33.863281 C 81.371094 31.148438 81.371094 28.488281 81.371094 25.652344 M 176.148438 26.84375 C 176.136719 26.5625 176.121094 26.28125 176.09375 25.71875 C 175.21875 26.027344 174.480469 26.289062 173.71875 26.558594 C 173.714844 26.511719 173.683594 26.308594 173.65625 26.121094 C 173.203125 26.121094 172.8125 26.121094 172.402344 26.121094 C 172.402344 28.730469 172.402344 31.292969 172.402344 33.855469 C 172.863281 33.855469 173.273438 33.855469 173.714844 33.855469 C 173.714844 32.203125 173.710938 30.617188 173.714844 29.027344 C 173.714844 27.847656 174.238281 27.316406 175.433594 27.226562 C 175.675781 27.210938 175.90625 27.078125 176.148438 26.84375 M 100.300781 31.390625 C 100.300781 29.636719 100.300781 27.878906 100.300781 26.125 C 99.808594 26.125 99.417969 26.125 99.035156 26.125 C 99.035156 28.738281 99.035156 31.296875 99.035156 33.863281 C 99.480469 33.863281 99.867188 33.863281 100.300781 33.863281 C 100.300781 33.0625 100.300781 32.3125 100.300781 31.390625 M 100.4375 23.800781 C 100.253906 23.265625 99.851562 23.046875 99.371094 23.285156 C 99.136719 23.402344 98.890625 23.820312 98.921875 24.070312 C 98.953125 24.308594 99.300781 24.632812 99.5625 24.695312 C 100.09375 24.816406 100.429688 24.519531 100.4375 23.800781 Z M 100.4375 23.800781 "/>
<path style=" stroke:none;fill-rule:nonzero;fill:rgb(1.176471%,22.352941%,47.058824%);fill-opacity:1;" d="M 27.234375 0.699219 C 28.378906 0.316406 29.332031 0.617188 30.089844 1.371094 C 34.53125 5.800781 38.964844 10.242188 43.363281 14.71875 C 44.578125 15.953125 44.441406 17.632812 43.113281 18.96875 C 39.042969 23.074219 34.960938 27.167969 30.882812 31.269531 C 28.535156 33.625 26.195312 35.984375 23.847656 38.339844 C 22.257812 39.9375 20.695312 39.941406 19.109375 38.351562 C 17.621094 36.855469 16.128906 35.359375 14.652344 33.855469 C 14.328125 33.523438 14.054688 33.394531 13.535156 33.507812 C 5.945312 35.199219 -0.644531 28.664062 0.929688 21.035156 C 2.082031 15.4375 7.980469 11.683594 13.492188 13.085938 C 14.105469 13.246094 14.425781 13.105469 14.828125 12.699219 C 18.460938 9.019531 22.109375 5.351562 25.773438 1.699219 C 26.171875 1.304688 26.699219 1.039062 27.234375 0.699219 M 9.660156 18.601562 C 9.941406 18.539062 10.21875 18.453125 10.503906 18.417969 C 12.785156 18.136719 14.488281 19.136719 15.746094 21.566406 C 17.40625 24.777344 19.027344 28.007812 20.660156 31.230469 C 21.066406 32.035156 21.660156 32.566406 22.613281 32.558594 C 23.519531 32.550781 24.105469 32.070312 24.503906 31.277344 C 26.824219 26.65625 29.160156 22.042969 31.472656 17.414062 C 32.054688 16.246094 31.65625 15.027344 30.605469 14.507812 C 29.5625 13.992188 28.390625 14.445312 27.796875 15.613281 C 27.113281 16.953125 26.453125 18.300781 25.777344 19.644531 C 24.734375 21.722656 23.6875 23.796875 22.589844 25.976562 C 21.539062 23.910156 20.554688 21.949219 19.550781 19.996094 C 18.558594 18.0625 17.296875 16.351562 15.339844 15.292969 C 11.984375 13.476562 7.699219 14.09375 4.914062 16.765625 C 2.164062 19.402344 1.355469 23.648438 2.949219 27.089844 C 4.910156 31.328125 10.015625 33.484375 14.132812 31.8125 C 15.226562 31.367188 15.730469 30.296875 15.367188 29.203125 C 15.027344 28.183594 13.96875 27.648438 12.855469 27.925781 C 12.464844 28.023438 12.078125 28.160156 11.683594 28.203125 C 9.113281 28.460938 6.917969 26.859375 6.316406 24.308594 C 5.765625 21.988281 7.101562 19.625 9.660156 18.601562 Z M 9.660156 18.601562 "/>
<path style=" stroke:none;fill-rule:nonzero;fill:rgb(3.921569%,24.705882%,48.235294%);fill-opacity:1;" d="M 59.894531 26.0625 C 60.296875 26.296875 60.6875 26.457031 60.960938 26.738281 C 62.40625 28.207031 62.386719 31.753906 60.949219 33.242188 C 59.890625 34.34375 58.324219 34.339844 56.746094 33.1875 C 56.679688 33.4375 56.621094 33.660156 56.558594 33.894531 C 56.199219 33.894531 55.855469 33.894531 55.457031 33.894531 C 55.457031 30.207031 55.457031 26.523438 55.457031 22.804688 C 55.871094 22.804688 56.261719 22.804688 56.738281 22.804688 C 56.738281 24.089844 56.738281 25.347656 56.738281 26.753906 C 57.753906 26.027344 58.726562 25.691406 59.894531 26.0625 M 56.746094 28.835938 C 56.746094 29.589844 56.742188 30.34375 56.746094 31.097656 C 56.753906 31.964844 57.222656 32.605469 58.015625 32.832031 C 58.910156 33.085938 59.8125 32.816406 60.199219 32.039062 C 60.863281 30.695312 60.871094 29.296875 60.207031 27.949219 C 59.832031 27.191406 59.042969 26.90625 58.117188 27.132812 C 57.328125 27.324219 56.765625 27.773438 56.746094 28.835938 Z M 56.746094 28.835938 "/>
<path style=" stroke:none;fill-rule:nonzero;fill:rgb(3.921569%,24.705882%,48.235294%);fill-opacity:1;" d="M 123.113281 33.359375 C 123.117188 29.863281 123.117188 26.449219 123.121094 23.039062 C 123.121094 22.984375 123.144531 22.929688 123.171875 22.824219 C 123.546875 22.824219 123.9375 22.824219 124.449219 22.824219 C 124.449219 24.078125 124.449219 25.347656 124.449219 26.738281 C 124.855469 26.496094 125.109375 26.316406 125.382812 26.1875 C 126.953125 25.441406 128.714844 26.140625 129.355469 27.800781 C 129.871094 29.136719 129.894531 30.523438 129.453125 31.882812 C 128.742188 34.089844 126.582031 34.734375 124.699219 33.335938 C 124.636719 33.289062 124.558594 33.265625 124.421875 33.199219 C 124.378906 33.445312 124.34375 33.65625 124.289062 33.945312 C 123.910156 33.675781 123.214844 34.40625 123.113281 33.359375 M 124.460938 30.507812 C 124.460938 30.707031 124.457031 30.910156 124.460938 31.113281 C 124.472656 31.972656 124.953125 32.617188 125.742188 32.835938 C 126.609375 33.074219 127.421875 32.796875 127.882812 32.105469 C 128.542969 31.121094 128.539062 28.84375 127.878906 27.859375 C 127.410156 27.160156 126.527344 26.855469 125.652344 27.171875 C 124.890625 27.445312 124.394531 27.957031 124.453125 28.863281 C 124.484375 29.351562 124.460938 29.84375 124.460938 30.507812 Z M 124.460938 30.507812 "/>
<path style=" stroke:none;fill-rule:nonzero;fill:rgb(3.137255%,24.313725%,48.235294%);fill-opacity:1;" d="M 67.898438 26.253906 C 68.144531 26.398438 68.328125 26.515625 68.613281 26.699219 C 68.613281 25.34375 68.613281 24.113281 68.613281 22.828125 C 69.070312 22.828125 69.460938 22.828125 69.914062 22.828125 C 69.914062 26.472656 69.914062 30.160156 69.914062 34.050781 C 69.40625 33.875 68.972656 33.722656 68.539062 33.574219 C 68.554688 33.472656 68.570312 33.371094 68.585938 33.273438 C 68.453125 33.363281 68.324219 33.453125 68.1875 33.542969 C 66.640625 34.558594 64.773438 34.097656 63.921875 32.441406 C 63.210938 31.058594 63.191406 29.589844 63.652344 28.136719 C 64.265625 26.199219 65.894531 25.476562 67.898438 26.253906 M 66.058594 27.1875 C 64.554688 28.109375 64.230469 31.289062 65.539062 32.453125 C 66.164062 33.007812 66.902344 33.03125 67.636719 32.730469 C 68.34375 32.441406 68.683594 31.910156 68.632812 31.101562 C 68.582031 30.296875 68.59375 29.484375 68.632812 28.679688 C 68.664062 27.957031 68.304688 27.488281 67.703125 27.285156 C 67.238281 27.125 66.699219 27.183594 66.058594 27.1875 Z M 66.058594 27.1875 "/>
<path style=" stroke:none;fill-rule:nonzero;fill:rgb(3.137255%,24.313725%,48.235294%);fill-opacity:1;" d="M 137.691406 26.261719 C 137.691406 28.832031 137.691406 31.316406 137.691406 33.863281 C 137.117188 33.886719 136.488281 34.230469 136.335938 33.300781 C 134.433594 34.386719 133.046875 34.285156 132 33 C 130.777344 31.5 130.765625 28.488281 131.976562 26.980469 C 133 25.710938 134.394531 25.582031 136.324219 26.640625 C 136.324219 25.339844 136.324219 24.09375 136.324219 22.808594 C 136.8125 22.808594 137.207031 22.808594 137.691406 22.808594 C 137.691406 23.9375 137.691406 25.054688 137.691406 26.261719 M 134.917969 32.871094 C 136.085938 32.492188 136.335938 32.15625 136.335938 30.957031 C 136.339844 30.179688 136.402344 29.394531 136.3125 28.625 C 136.261719 28.21875 136.035156 27.730469 135.726562 27.472656 C 134.726562 26.632812 133.132812 27.03125 132.769531 28.296875 C 132.507812 29.203125 132.464844 30.238281 132.589844 31.179688 C 132.757812 32.425781 133.484375 32.882812 134.917969 32.871094 Z M 134.917969 32.871094 "/>
<path style=" stroke:none;fill-rule:nonzero;fill:rgb(2.745098%,23.921569%,47.843137%);fill-opacity:1;" d="M 45.703125 33.914062 C 45.429688 33.902344 45.234375 33.890625 44.9375 33.875 C 45.71875 31.832031 46.480469 29.839844 47.238281 27.847656 C 47.753906 26.5 48.246094 25.140625 48.796875 23.808594 C 48.882812 23.59375 49.230469 23.367188 49.460938 23.359375 C 49.738281 23.355469 50.191406 23.511719 50.269531 23.71875 C 51.59375 27.074219 52.867188 30.445312 54.15625 33.828125 C 52.789062 34.03125 52.789062 34.03125 52.34375 32.804688 C 52.175781 32.34375 52.007812 31.882812 51.839844 31.421875 C 51.808594 31.34375 51.761719 31.269531 51.699219 31.148438 C 50.421875 31.148438 49.125 31.125 47.832031 31.171875 C 47.605469 31.179688 47.289062 31.433594 47.1875 31.65625 C 46.921875 32.226562 46.796875 32.871094 46.515625 33.433594 C 46.402344 33.660156 46.03125 33.757812 45.703125 33.914062 M 49.734375 25.59375 C 49.617188 25.570312 49.40625 25.507812 49.398438 25.527344 C 48.855469 26.996094 48.328125 28.46875 47.800781 29.9375 C 49.019531 29.9375 50.140625 29.9375 51.320312 29.9375 C 50.785156 28.46875 50.289062 27.09375 49.734375 25.59375 Z M 49.734375 25.59375 "/>
<path style=" stroke:none;fill-rule:nonzero;fill:rgb(2.745098%,23.921569%,47.843137%);fill-opacity:1;" d="M 116.023438 25.019531 C 116.199219 24.550781 116.296875 24.105469 116.535156 23.757812 C 116.6875 23.539062 117.050781 23.367188 117.324219 23.359375 C 117.558594 23.355469 117.9375 23.5625 118.019531 23.769531 C 119.320312 27.105469 120.585938 30.453125 121.859375 33.808594 C 120.515625 34.058594 120.515625 34.058594 120.066406 32.824219 C 119.898438 32.363281 119.730469 31.902344 119.5625 31.441406 C 119.53125 31.359375 119.484375 31.285156 119.417969 31.148438 C 118.121094 31.148438 116.796875 31.128906 115.476562 31.167969 C 115.277344 31.175781 114.992188 31.429688 114.90625 31.636719 C 114.59375 32.375 114.347656 33.140625 114.082031 33.878906 C 113.597656 33.878906 113.175781 33.878906 112.648438 33.878906 C 113.785156 30.902344 114.894531 27.992188 116.023438 25.019531 M 115.714844 29.328125 C 115.660156 29.542969 115.605469 29.753906 115.554688 29.960938 C 116.726562 29.960938 117.835938 29.960938 119.042969 29.960938 C 118.460938 28.359375 117.90625 26.84375 117.269531 25.085938 C 116.710938 26.621094 116.238281 27.914062 115.714844 29.328125 Z M 115.714844 29.328125 "/>
<path style=" stroke:none;fill-rule:nonzero;fill:rgb(2.745098%,23.921569%,47.843137%);fill-opacity:1;" d="M 84.695312 29.542969 C 85.828125 29.351562 86.898438 29.179688 88.011719 29.003906 C 88.214844 28.191406 87.980469 27.5 87.332031 27.179688 C 86.59375 26.816406 85.488281 27.015625 85.019531 27.601562 C 84.453125 28.304688 84.453125 28.304688 83.46875 28.136719 C 83.472656 28.027344 83.457031 27.910156 83.488281 27.808594 C 83.867188 26.546875 85.375 25.75 87.015625 25.933594 C 88.492188 26.101562 89.355469 26.949219 89.429688 28.394531 C 89.480469 29.433594 89.425781 30.480469 89.457031 31.519531 C 89.476562 32.292969 89.558594 33.0625 89.617188 33.878906 C 89.074219 33.820312 88.285156 34.335938 88.085938 33.234375 C 86.25 34.40625 84.378906 34.242188 83.558594 32.867188 C 82.878906 31.714844 83.3125 30.382812 84.695312 29.542969 M 84.972656 32.476562 C 85.835938 33.015625 86.667969 32.992188 87.460938 32.453125 C 88.359375 31.839844 88.136719 30.984375 88.054688 30.109375 C 87.539062 30.109375 87.082031 30.09375 86.625 30.117188 C 86.367188 30.128906 86.109375 30.183594 85.859375 30.242188 C 84.683594 30.527344 84.363281 31.234375 84.972656 32.476562 Z M 84.972656 32.476562 "/>
<path style=" stroke:none;fill-rule:nonzero;fill:rgb(4.705882%,25.490196%,49.019608%);fill-opacity:1;" d="M 143.34375 34.0625 C 141.375 34.050781 140.09375 33.1875 139.617188 31.609375 C 139.019531 29.628906 139.667969 27.390625 141.109375 26.441406 C 142.945312 25.234375 145.28125 26.089844 145.855469 28.222656 C 146.03125 28.878906 146.039062 29.578125 146.136719 30.367188 C 144.300781 30.367188 142.585938 30.367188 140.792969 30.367188 C 140.855469 31.449219 141.175781 32.285156 142.105469 32.710938 C 143.277344 33.253906 144.292969 32.890625 145.164062 31.925781 C 145.433594 32.132812 145.675781 32.320312 145.941406 32.53125 C 145.339844 33.523438 144.457031 33.917969 143.34375 34.0625 M 143.699219 27.21875 C 142.070312 26.742188 141.027344 27.484375 140.917969 29.203125 C 142.175781 29.203125 143.433594 29.203125 145.011719 29.203125 C 144.539062 28.449219 144.175781 27.867188 143.699219 27.21875 Z M 143.699219 27.21875 "/>
<path style=" stroke:none;fill-rule:nonzero;fill:rgb(4.705882%,25.490196%,49.019608%);fill-opacity:1;" d="M 73.324219 33.519531 C 71.199219 32.15625 71.386719 28.613281 72.601562 27.171875 C 73.480469 26.132812 74.585938 25.710938 75.917969 25.992188 C 77.226562 26.265625 77.9375 27.167969 78.207031 28.417969 C 78.339844 29.027344 78.332031 29.664062 78.394531 30.382812 C 76.566406 30.382812 74.851562 30.382812 73.085938 30.382812 C 73.132812 31.460938 73.472656 32.292969 74.402344 32.71875 C 75.574219 33.253906 76.585938 32.875 77.457031 31.921875 C 77.726562 32.136719 77.964844 32.324219 78.195312 32.511719 C 77.183594 34.121094 75.296875 34.511719 73.324219 33.519531 M 73.386719 28.25 C 73.289062 28.546875 73.195312 28.84375 73.089844 29.1875 C 74.4375 29.1875 75.710938 29.1875 76.988281 29.1875 C 76.828125 27.859375 76.4375 27.289062 75.585938 27.089844 C 74.679688 26.878906 74.089844 27.164062 73.386719 28.25 Z M 73.386719 28.25 "/>
<path style=" stroke:none;fill-rule:nonzero;fill:rgb(3.529412%,24.313725%,48.235294%);fill-opacity:1;" d="M 156.6875 26.730469 C 157.894531 25.804688 159.164062 25.644531 160.472656 26.25 C 161.804688 26.871094 162.425781 28.03125 162.457031 29.453125 C 162.476562 30.273438 162.398438 31.140625 162.136719 31.910156 C 161.644531 33.34375 160.492188 34.03125 159.003906 34.058594 C 157.511719 34.085938 156.414062 33.382812 155.785156 32.011719 C 154.996094 30.289062 155.355469 28.160156 156.6875 26.730469 M 158.1875 32.824219 C 159.085938 33.0625 159.910156 32.992188 160.535156 32.199219 C 161.394531 31.097656 161.382812 28.867188 160.523438 27.78125 C 159.785156 26.84375 158.375 26.765625 157.539062 27.601562 C 156.390625 28.75 156.414062 32.039062 158.1875 32.824219 Z M 158.1875 32.824219 "/>
<path style=" stroke:none;fill-rule:nonzero;fill:rgb(4.313725%,24.705882%,48.627451%);fill-opacity:1;" d="M 148.921875 26.632812 C 149.066406 26.664062 149.242188 26.675781 149.347656 26.59375 C 150.324219 25.828125 151.398438 25.683594 152.507812 26.1875 C 153.554688 26.660156 153.742188 27.65625 153.761719 28.664062 C 153.796875 30.390625 153.773438 32.121094 153.773438 33.882812 C 153.300781 33.882812 152.90625 33.882812 152.410156 33.882812 C 152.410156 32.207031 152.40625 30.539062 152.410156 28.871094 C 152.414062 28.140625 152.328125 27.417969 151.523438 27.175781 C 150.699219 26.925781 149.890625 27.058594 149.339844 27.789062 C 149.117188 28.082031 148.972656 28.507812 148.964844 28.878906 C 148.925781 30.523438 148.949219 32.167969 148.949219 33.863281 C 148.492188 33.863281 148.082031 33.863281 147.632812 33.863281 C 147.632812 31.269531 147.632812 28.707031 147.632812 26.066406 C 148.101562 26.246094 148.777344 25.609375 148.921875 26.632812 Z M 148.921875 26.632812 "/>
<path style=" stroke:none;fill-rule:nonzero;fill:rgb(2.352941%,23.529412%,47.45098%);fill-opacity:1;" d="M 168.996094 28.523438 C 168.996094 27.6875 168.996094 26.9375 168.996094 26.128906 C 169.421875 26.128906 169.808594 26.128906 170.261719 26.128906 C 170.261719 28.671875 170.261719 31.230469 170.261719 33.867188 C 169.789062 33.800781 169.101562 34.355469 168.992188 33.441406 C 168.304688 33.648438 167.617188 33.976562 166.902344 34.042969 C 165.355469 34.1875 164.296875 33.320312 164.21875 31.769531 C 164.121094 29.898438 164.195312 28.019531 164.195312 26.109375 C 164.632812 26.109375 165.023438 26.109375 165.519531 26.109375 C 165.519531 27.214844 165.519531 28.308594 165.519531 29.398438 C 165.519531 29.976562 165.511719 30.558594 165.523438 31.136719 C 165.558594 32.441406 166 32.921875 167.121094 32.890625 C 168.375 32.859375 168.992188 32.253906 168.996094 31.042969 C 168.996094 30.230469 168.996094 29.417969 168.996094 28.523438 Z M 168.996094 28.523438 "/>
<path style=" stroke:none;fill-rule:nonzero;fill:rgb(1.568627%,22.745098%,47.058824%);fill-opacity:1;" d="M 93.390625 29.953125 C 94.078125 29.035156 94.730469 28.164062 95.464844 27.179688 C 93.992188 27.179688 92.679688 27.179688 91.304688 27.179688 C 91.304688 26.800781 91.304688 26.476562 91.304688 26.109375 C 93.234375 26.109375 95.15625 26.109375 97.328125 26.109375 C 97.097656 26.679688 96.984375 27.203125 96.699219 27.597656 C 95.472656 29.304688 94.191406 30.972656 92.832031 32.792969 C 94.410156 32.792969 95.832031 32.792969 97.316406 32.792969 C 97.335938 33.179688 97.351562 33.488281 97.371094 33.855469 C 95.308594 33.855469 93.28125 33.855469 90.996094 33.855469 C 91.214844 33.300781 91.332031 32.785156 91.601562 32.375 C 92.140625 31.554688 92.765625 30.789062 93.390625 29.953125 Z M 93.390625 29.953125 "/>
<path style=" stroke:none;fill-rule:nonzero;fill:rgb(1.568627%,22.745098%,47.058824%);fill-opacity:1;" d="M 103.914062 26.070312 C 105.324219 26.070312 106.644531 26.070312 108.238281 26.070312 C 108.007812 26.660156 107.90625 27.183594 107.625 27.578125 C 106.554688 29.082031 105.421875 30.539062 104.3125 32.019531 C 104.152344 32.238281 104.011719 32.472656 103.773438 32.828125 C 105.351562 32.828125 106.777344 32.828125 108.234375 32.828125 C 108.234375 33.214844 108.234375 33.519531 108.234375 33.914062 C 107.191406 33.914062 106.164062 33.914062 105.132812 33.914062 C 104.132812 33.914062 103.128906 33.914062 101.878906 33.914062 C 102.117188 33.304688 102.210938 32.796875 102.484375 32.414062 C 103.554688 30.910156 104.683594 29.449219 105.789062 27.964844 C 105.957031 27.742188 106.109375 27.507812 106.347656 27.160156 C 104.886719 27.160156 103.554688 27.160156 102.191406 27.160156 C 102.191406 26.769531 102.191406 26.464844 102.191406 26.070312 C 102.75 26.070312 103.289062 26.070312 103.914062 26.070312 Z M 103.914062 26.070312 "/>
<path style=" stroke:none;fill-rule:nonzero;fill:rgb(3.529412%,24.313725%,48.235294%);fill-opacity:1;" d="M 81.371094 25.738281 C 81.371094 28.488281 81.371094 31.148438 81.371094 33.863281 C 80.921875 33.863281 80.53125 33.863281 80.074219 33.863281 C 80.074219 30.214844 80.074219 26.527344 80.074219 22.808594 C 80.472656 22.808594 80.867188 22.808594 81.371094 22.808594 C 81.371094 23.757812 81.371094 24.707031 81.371094 25.738281 Z M 81.371094 25.738281 "/>
<path style=" stroke:none;fill-rule:nonzero;fill:rgb(4.705882%,25.098039%,48.627451%);fill-opacity:1;" d="M 176.148438 26.917969 C 175.90625 27.078125 175.675781 27.210938 175.433594 27.226562 C 174.238281 27.316406 173.714844 27.847656 173.714844 29.027344 C 173.710938 30.617188 173.714844 32.203125 173.714844 33.855469 C 173.273438 33.855469 172.863281 33.855469 172.402344 33.855469 C 172.402344 31.292969 172.402344 28.730469 172.402344 26.121094 C 172.8125 26.121094 173.203125 26.121094 173.65625 26.121094 C 173.683594 26.308594 173.714844 26.511719 173.71875 26.558594 C 174.480469 26.289062 175.21875 26.027344 176.09375 25.71875 C 176.121094 26.28125 176.136719 26.5625 176.148438 26.917969 Z M 176.148438 26.917969 "/>
<path style=" stroke:none;fill-rule:nonzero;fill:rgb(0%,21.568627%,46.27451%);fill-opacity:1;" d="M 100.300781 31.476562 C 100.300781 32.3125 100.300781 33.0625 100.300781 33.863281 C 99.867188 33.863281 99.480469 33.863281 99.035156 33.863281 C 99.035156 31.296875 99.035156 28.738281 99.035156 26.125 C 99.417969 26.125 99.808594 26.125 100.300781 26.125 C 100.300781 27.878906 100.300781 29.636719 100.300781 31.476562 Z M 100.300781 31.476562 "/>
<path style=" stroke:none;fill-rule:nonzero;fill:rgb(4.705882%,25.490196%,49.019608%);fill-opacity:1;" d="M 100.441406 23.867188 C 100.429688 24.519531 100.09375 24.816406 99.5625 24.695312 C 99.300781 24.632812 98.953125 24.308594 98.921875 24.070312 C 98.890625 23.820312 99.136719 23.402344 99.371094 23.285156 C 99.851562 23.046875 100.253906 23.265625 100.441406 23.867188 Z M 100.441406 23.867188 "/>
<path style=" stroke:none;fill-rule:nonzero;fill:rgb(98.431373%,98.823529%,99.215686%);fill-opacity:1;" d="M 9.59375 18.621094 C 7.101562 19.625 5.765625 21.988281 6.316406 24.308594 C 6.917969 26.859375 9.113281 28.460938 11.683594 28.203125 C 12.078125 28.160156 12.464844 28.023438 12.855469 27.925781 C 13.96875 27.648438 15.027344 28.183594 15.367188 29.203125 C 15.730469 30.296875 15.226562 31.367188 14.132812 31.8125 C 10.015625 33.484375 4.910156 31.328125 2.949219 27.089844 C 1.355469 23.648438 2.164062 19.402344 4.914062 16.765625 C 7.699219 14.09375 11.984375 13.476562 15.339844 15.292969 C 17.296875 16.351562 18.558594 18.0625 19.550781 19.996094 C 20.554688 21.949219 21.539062 23.910156 22.589844 25.976562 C 23.6875 23.796875 24.734375 21.722656 25.777344 19.644531 C 26.453125 18.300781 27.113281 16.953125 27.796875 15.613281 C 28.390625 14.445312 29.5625 13.992188 30.605469 14.507812 C 31.65625 15.027344 32.054688 16.246094 31.472656 17.414062 C 29.160156 22.042969 26.824219 26.65625 24.503906 31.277344 C 24.105469 32.070312 23.519531 32.550781 22.613281 32.558594 C 21.660156 32.566406 21.066406 32.035156 20.660156 31.230469 C 19.027344 28.007812 17.40625 24.777344 15.746094 21.566406 C 14.488281 19.136719 12.785156 18.136719 10.503906 18.417969 C 10.21875 18.453125 9.941406 18.539062 9.59375 18.621094 Z M 9.59375 18.621094 "/>
<path style=" stroke:none;fill-rule:nonzero;fill:rgb(99.215686%,99.215686%,99.607843%);fill-opacity:1;" d="M 56.746094 28.757812 C 56.765625 27.773438 57.328125 27.324219 58.117188 27.132812 C 59.042969 26.90625 59.832031 27.191406 60.207031 27.949219 C 60.871094 29.296875 60.863281 30.695312 60.199219 32.039062 C 59.8125 32.816406 58.910156 33.085938 58.015625 32.832031 C 57.222656 32.605469 56.753906 31.964844 56.746094 31.097656 C 56.742188 30.34375 56.746094 29.589844 56.746094 28.757812 Z M 56.746094 28.757812 "/>
<path style=" stroke:none;fill-rule:nonzero;fill:rgb(99.215686%,99.215686%,99.607843%);fill-opacity:1;" d="M 124.460938 30.421875 C 124.460938 29.84375 124.484375 29.351562 124.453125 28.863281 C 124.394531 27.957031 124.890625 27.445312 125.652344 27.171875 C 126.527344 26.855469 127.410156 27.160156 127.878906 27.859375 C 128.539062 28.84375 128.542969 31.121094 127.882812 32.105469 C 127.421875 32.796875 126.609375 33.074219 125.742188 32.835938 C 124.953125 32.617188 124.472656 31.972656 124.460938 31.113281 C 124.457031 30.910156 124.460938 30.707031 124.460938 30.421875 Z M 124.460938 30.421875 "/>
<path style=" stroke:none;fill-rule:nonzero;fill:rgb(98.823529%,99.215686%,99.215686%);fill-opacity:1;" d="M 66.125 27.164062 C 66.699219 27.183594 67.238281 27.125 67.703125 27.285156 C 68.304688 27.488281 68.664062 27.957031 68.632812 28.679688 C 68.59375 29.484375 68.582031 30.296875 68.632812 31.101562 C 68.683594 31.910156 68.34375 32.441406 67.636719 32.730469 C 66.902344 33.03125 66.164062 33.007812 65.539062 32.453125 C 64.230469 31.289062 64.554688 28.109375 66.125 27.164062 Z M 66.125 27.164062 "/>
<path style=" stroke:none;fill-rule:nonzero;fill:rgb(98.823529%,99.215686%,99.215686%);fill-opacity:1;" d="M 134.847656 32.878906 C 133.484375 32.882812 132.757812 32.425781 132.589844 31.179688 C 132.464844 30.238281 132.507812 29.203125 132.769531 28.296875 C 133.132812 27.03125 134.726562 26.632812 135.726562 27.472656 C 136.035156 27.730469 136.261719 28.21875 136.3125 28.625 C 136.402344 29.394531 136.339844 30.179688 136.335938 30.957031 C 136.335938 32.15625 136.085938 32.492188 134.847656 32.878906 Z M 134.847656 32.878906 "/>
<path style=" stroke:none;fill-rule:nonzero;fill:rgb(94.509804%,95.686275%,97.254902%);fill-opacity:1;" d="M 49.761719 25.65625 C 50.289062 27.09375 50.785156 28.46875 51.320312 29.9375 C 50.140625 29.9375 49.019531 29.9375 47.800781 29.9375 C 48.328125 28.46875 48.855469 26.996094 49.398438 25.527344 C 49.40625 25.507812 49.617188 25.570312 49.761719 25.65625 Z M 49.761719 25.65625 "/>
<path style=" stroke:none;fill-rule:nonzero;fill:rgb(94.509804%,95.686275%,97.254902%);fill-opacity:1;" d="M 115.742188 29.265625 C 116.238281 27.914062 116.710938 26.621094 117.269531 25.085938 C 117.90625 26.84375 118.460938 28.359375 119.042969 29.960938 C 117.835938 29.960938 116.726562 29.960938 115.554688 29.960938 C 115.605469 29.753906 115.660156 29.542969 115.742188 29.265625 Z M 115.742188 29.265625 "/>
<path style=" stroke:none;fill-rule:nonzero;fill:rgb(97.254902%,97.647059%,98.431373%);fill-opacity:1;" d="M 84.925781 32.425781 C 84.363281 31.234375 84.683594 30.527344 85.859375 30.242188 C 86.109375 30.183594 86.367188 30.128906 86.625 30.117188 C 87.082031 30.09375 87.539062 30.109375 88.054688 30.109375 C 88.136719 30.984375 88.359375 31.839844 87.460938 32.453125 C 86.667969 32.992188 85.835938 33.015625 84.925781 32.425781 Z M 84.925781 32.425781 "/>
<path style=" stroke:none;fill-rule:nonzero;fill:rgb(97.647059%,98.039216%,98.823529%);fill-opacity:1;" d="M 143.757812 27.253906 C 144.175781 27.867188 144.539062 28.449219 145.011719 29.203125 C 143.433594 29.203125 142.175781 29.203125 140.917969 29.203125 C 141.027344 27.484375 142.070312 26.742188 143.757812 27.253906 Z M 143.757812 27.253906 "/>
<path style=" stroke:none;fill-rule:nonzero;fill:rgb(97.647059%,98.039216%,98.823529%);fill-opacity:1;" d="M 73.410156 28.191406 C 74.089844 27.164062 74.679688 26.878906 75.585938 27.089844 C 76.4375 27.289062 76.828125 27.859375 76.988281 29.1875 C 75.710938 29.1875 74.4375 29.1875 73.089844 29.1875 C 73.195312 28.84375 73.289062 28.546875 73.410156 28.191406 Z M 73.410156 28.191406 "/>
<path style=" stroke:none;fill-rule:nonzero;fill:rgb(98.039216%,98.431373%,98.823529%);fill-opacity:1;" d="M 158.125 32.789062 C 156.414062 32.039062 156.390625 28.75 157.539062 27.601562 C 158.375 26.765625 159.785156 26.84375 160.523438 27.78125 C 161.382812 28.867188 161.394531 31.097656 160.535156 32.199219 C 159.910156 32.992188 159.085938 33.0625 158.125 32.789062 Z M 158.125 32.789062 "/>
</g>
</svg>
